<?xml version="1.0" encoding="UTF-8" standalone="no"?>
<svg
   xmlns:dc="http://purl.org/dc/elements/1.1/"
   xmlns:cc="http://creativecommons.org/ns#"
   xmlns:rdf="http://www.w3.org/1999/02/22-rdf-syntax-ns#"
   xmlns:svg="http://www.w3.org/2000/svg"
   xmlns="http://www.w3.org/2000/svg"
   xml:space="preserve"
   enable-background="new 0 0 619 550"
   viewBox="0 0 552 495"
   height="495"
   width="552"
   y="0px"
   x="0px"
   id="Layer_1"
   version="1.1"><title
   id="title4139">Splat 14</title><metadata
   id="metadata8"><rdf:RDF><cc:Work
       rdf:about=""><dc:format>image/svg+xml</dc:format><dc:type
         rdf:resource="http://purl.org/dc/dcmitype/StillImage" /><dc:title>Splat 14</dc:title><dc:subject><rdf:Bag><rdf:li>glop</rdf:li><rdf:li>goo</rdf:li><rdf:li>goop</rdf:li><rdf:li>grunge</rdf:li><rdf:li>gunge</rdf:li><rdf:li>gunk</rdf:li><rdf:li>Halloween</rdf:li><rdf:li>holiday</rdf:li><rdf:li>ink</rdf:li><rdf:li>paint</rdf:li><rdf:li>slime</rdf:li><rdf:li>spill</rdf:li><rdf:li>splat</rdf:li></rdf:Bag></dc:subject><dc:description>green splat</dc:description><dc:creator><cc:Agent><dc:title>NicholasJudy456</dc:title></cc:Agent></dc:creator><dc:publisher><cc:Agent><dc:title>Openclipart.org</dc:title></cc:Agent></dc:publisher><dc:identifier>https://openclipart.org/</dc:identifier><dc:source>https://openclipart.org/user-detail/NicholasJudy456</dc:source><cc:license
         rdf:resource="http://creativecommons.org/publicdomain/zero/1.0/" /></cc:Work><cc:License
       rdf:about="http://creativecommons.org/publicdomain/zero/1.0/"><cc:permits
         rdf:resource="http://creativecommons.org/ns#Reproduction" /><cc:permits
         rdf:resource="http://creativecommons.org/ns#Distribution" /><cc:permits
         rdf:resource="http://creativecommons.org/ns#DerivativeWorks" /></cc:License></rdf:RDF></metadata><defs
   id="defs6" />  <path
   id="path4136"
   d="m 163.57665,478.9939 c -24.3084,-14.10129 20.22363,-31.85842 11.65433,-4.63671 -2.25318,3.00162 -7.82305,7.72231 -11.65433,4.63671 z m 183.28848,-20.78849 c -13.14775,-2.33976 -17.9053,-20.06385 -30.08968,-21.98687 -22.97473,-4.1326 -43.31948,4.50415 -60.96133,14.07232 -10.51557,-9.2598 -14.59557,-41.08981 -37.2545,-23.17861 -11.85767,5.10112 -26.09006,37.76324 -36.43017,17.92471 12.26335,-16.11595 13.61823,-38.69297 -2.50565,-53.85402 -9.07864,-25.52803 -23.49108,-2.96585 -38.11197,-0.47002 -19.8545,-7.00156 2.24982,-17.9895 4.45519,-28.45906 -19.65784,-4.47223 -49.62704,-12.5375 -40.5684,-40.71986 -1.26199,-17.36206 -23.24425,-4.54888 -33.79057,-10.24131 -16.397164,-2.8794 -10.496155,-27.34616 7.05826,-18.74942 17.51815,3.39812 57.60888,-4.46006 32.23855,-26.61982 -15.76203,-15.19509 -36.4094,-26.72533 -59.007044,-19.4613 -11.307053,7.56151 -45.1768893,3.79939 -35.022881,-13.82 19.669671,-10.71178 41.22779,3.85343 62.546315,-0.41167 22.65923,2.25062 56.7955,2.92211 46.56505,-30.26243 -9.26561,-9.78026 -32.91651,-30.82361 -7.38635,-36.30014 15.55413,-0.21331 30.86842,10.43077 44.60082,1.80665 13.21274,-12.4417 16.76714,-39.42827 -0.38632,-50.47828 -10.80648,-8.45672 -38.40916,-16.85432 -19.84938,-33.902321 19.3853,1.0478 24.20642,27.651681 41.16885,36.150751 18.51916,13.61049 50.95835,7.17401 61.80278,-12.78899 1.96924,-16.748651 -11.63994,-42.923241 12.50617,-47.433179 23.30938,6.353523 -1.66539,45.643539 28.90133,45.889059 25.56358,7.85631 39.61883,-14.011941 60.08396,-22.018981 30.2942,9.28422 -29.51698,37.027991 8.87108,40.322941 23.1761,5.46703 39.02059,-17.52132 48.06887,-35.414291 3.46612,-8.21607 5.50233,-27.606776 17.85058,-22.515508 13.24499,18.081808 1.86915,39.536319 -11.35616,52.268479 -10.16764,16.26152 9.46107,29.60498 13.1601,44.13081 1.34227,15.68577 3.95064,63.23778 25.50577,34.08371 11.20788,-16.92925 39.90908,7.29467 12.92634,13.29565 -21.85133,2.38884 -8.74246,30.90525 8.32053,31.55607 15.1609,9.00237 41.9144,-1.77662 49.85037,17.11456 -3.05446,22.09256 -29.22362,4.29383 -44.75131,8.75457 -26.49789,0.12599 -17.43484,26.88046 -7.77732,42.51035 9.76698,19.89884 31.2054,31.76298 48.60822,44.93826 18.15985,15.69828 -12.65871,32.16282 -20.76404,11.87903 -12.49108,-15.20596 -28.1879,-37.35636 -51.04288,-25.58585 -20.34079,12.10319 -3.81472,46.51527 -27.16948,55.99789 -13.78208,11.17439 14.82012,29.49627 21.31808,39.46489 19.96655,7.40908 3.994,34.09436 -8.11021,13.7541 -12.62478,-14.46055 -23.96764,-30.13593 -42.7521,-37.32729 -23.81689,-5.8173 -31.20602,23.70722 -28.16799,40.3062 -2.51049,4.62673 -8.09576,6.80908 -13.15148,5.77822 z M 87.72089,429.74028 c -13.99202,-18.69723 22.26227,-31.47183 36.51218,-33.31233 -8.19425,13.17742 -16.8232,38.48212 -36.51218,33.31233 z m 395.16287,-237.9861 c 3.08236,-15.41161 26.50512,-16.98533 35.11966,-30.10934 15.44768,-13.89517 30.96141,21.08476 5.35868,18.73778 -12.78887,2.57515 -28.00886,12.6114 -40.47834,11.37156 z M 416.42257,45.68923 c -11.99704,-10.851863 4.40672,-47.6817285 9.83431,-21.44264 1.89744,5.3401 -6.99834,36.270722 -9.83431,21.44264 z"
   style="fill:#21b04b" />
</svg>